<?xml version="1.0" encoding="utf-8"?>
<!-- Uploaded to: SVG Repo, www.svgrepo.com, Generator: SVG Repo Mixer Tools -->
<svg width="800px" height="800px" viewBox="0 0 1024 1024" fill="#000000" class="icon"  version="1.1" xmlns="http://www.w3.org/2000/svg"><path d="M200.458 911.948c-4.42 0-8.078-3.576-8.078-7.998s3.5-8 7.92-8h0.156c4.42 0 8 3.578 8 8s-3.578 7.998-7.998 7.998zM200.458 943.944c-4.42 0-8.078-3.578-8.078-7.998 0-4.422 3.5-8 7.92-8h0.156c4.42 0 8 3.578 8 8a7.994 7.994 0 0 1-7.998 7.998zM199.974 975.94H7.998A7.994 7.994 0 0 1 0 967.942v-53.306c0-31.184 16.576-43.478 45.198-54.182 9.576-3.576 35.026-13.09 55.352-22.792a7.962 7.962 0 0 1 10.654 3.766 8 8 0 0 1-3.764 10.67c-18.778 8.966-41.324 17.624-56.632 23.358C23.482 885.658 16 894.078 16 914.638v45.306h183.976a7.996 7.996 0 1 1-0.002 15.996z" fill="" /><path d="M391.95 975.94H199.974c-4.42 0-8-3.578-8-7.998 0-4.422 3.578-8 8-8h183.976v-45.306c0-20.56-7.482-28.98-34.792-39.182-15.326-5.75-37.886-14.406-56.68-23.404a7.986 7.986 0 0 1-3.75-10.67c1.89-3.984 6.686-5.688 10.656-3.766 18.232 8.734 40.338 17.216 55.382 22.84 28.622 10.704 45.182 22.998 45.182 54.182v53.306a7.994 7.994 0 0 1-7.998 7.998zM200.458 850.142c-45.198 0-119.984-71.944-119.984-153.932 0-4.422 3.578-8 8-8a7.994 7.994 0 0 1 7.998 8c0 71.13 64.882 137.934 103.988 137.934 39.12 0 103.986-66.802 103.986-137.934 0-4.422 3.578-8 8-8s8 3.578 8 8c-0.004 81.99-74.776 153.932-119.988 153.932zM87.988 687.976c-0.64 0-1.296-0.078-1.954-0.25a7.992 7.992 0 0 1-6.014-7c-4.25-45.524 5.702-81.926 29.622-108.188 35.23-38.7 92.362-46.814 134.076-46.814 21.778 0 36.838 2.266 37.464 2.368a8.02 8.02 0 0 1 6.734 6.952 8.02 8.02 0 0 1-4.906 8.36c-17.53 7.202-15.936 24.152-13.748 32.934 8.17 0.312 24.59 2.936 37.088 17.558 15.232 17.78 19.778 47.15 13.514 87.316a7.994 7.994 0 0 1-6.186 6.578 8.04 8.04 0 0 1-8.374-3.376l-28.45-42.666c-12.716 4.61-43.244 14.232-76.396 14.232-33.26 0-64.444-9.686-77.334-14.28l-28.48 42.712a8.002 8.002 0 0 1-6.656 3.564z m191.974-63.992c2.61 0 5.14 1.282 6.656 3.562l19.748 29.606c1.218-23.98-2.89-42.042-12.17-52.852-8.936-10.454-20.684-12.016-26.886-12.016-1.562 0-2.562 0.11-2.766 0.14-3.686 0.406-7.124-1.562-8.482-4.936-4.422-10.888-7.438-30.652 3.092-45.37-4.562-0.234-9.78-0.406-15.436-0.406-38.496 0-90.942 7.216-122.25 41.588-16.42 18.03-25.232 42.01-26.294 71.474l18.154-27.23a7.966 7.966 0 0 1 9.702-2.968c0.376 0.156 38.042 15.404 77.428 15.404 39.354 0 76.038-15.216 76.412-15.374a7.994 7.994 0 0 1 3.092-0.622z" fill="" /><path d="M312.444 704.208c-4.422 0-8-3.578-8-7.998v-16.234c0-4.42 3.578-7.998 8-7.998s8 3.578 8 7.998v16.234a7.996 7.996 0 0 1-8 7.998zM88.472 704.208c-4.422 0-8-3.578-8-7.998v-16.234a7.994 7.994 0 0 1 8-7.998 7.994 7.994 0 0 1 7.998 7.998v16.234a7.994 7.994 0 0 1-7.998 7.998zM168.228 879.952a8.06 8.06 0 0 1-5.656-2.342l-47.994-47.994a8 8 0 0 1 11.312-11.31l43.932 43.93 27.09-13.434a7.99 7.99 0 1 1 7.106 14.308l-32.23 15.998a7.948 7.948 0 0 1-3.56 0.844z" fill="" /><path d="M232.204 879.952c-1.202 0-2.42-0.282-3.546-0.844l-32.23-15.998a7.99 7.99 0 0 1 7.106-14.308l27.076 13.434 43.932-43.93a8 8 0 0 1 11.312 11.31l-47.994 47.994a8.012 8.012 0 0 1-5.656 2.342zM823.892 975.94h-191.974c-4.422 0-8-3.578-8-7.998v-53.306c0-31.184 16.576-43.462 45.198-54.182 16.374-6.124 37.464-14.262 55.338-22.792 3.998-1.922 8.764-0.234 10.67 3.766a8 8 0 0 1-3.766 10.67c-18.436 8.794-39.948 17.108-56.632 23.358-27.324 10.216-34.808 18.622-34.808 39.182v45.306h183.976a7.994 7.994 0 0 1 7.998 8 7.996 7.996 0 0 1-8 7.996z" fill="" /><path d="M1015.868 975.94h-191.974a7.994 7.994 0 0 1-7.998-7.998c0-4.422 3.576-8 7.998-8h183.976v-45.306c0-20.56-7.484-28.996-34.792-39.182-16.702-6.25-38.228-14.562-56.68-23.404a8.004 8.004 0 0 1-3.766-10.67c1.906-4.016 6.734-5.688 10.67-3.766 17.888 8.578 38.996 16.716 55.384 22.84 28.606 10.688 45.182 22.998 45.182 54.182v53.306a7.994 7.994 0 0 1-8 7.998zM824.392 850.142c-45.198 0-119.984-71.944-119.984-153.932 0-4.422 3.578-8 7.998-8 4.422 0 8 3.578 8 8 0 71.13 64.868 137.934 103.986 137.934s103.986-66.802 103.986-137.934c0-4.422 3.578-8 8-8a7.994 7.994 0 0 1 7.998 8c0 81.99-74.786 153.932-119.984 153.932z" fill="" /><path d="M936.378 704.208c-4.422 0-8-3.578-8-7.998v-16.234a7.994 7.994 0 0 1 8-7.998 7.994 7.994 0 0 1 7.998 7.998v16.234a7.994 7.994 0 0 1-7.998 7.998zM712.406 704.208a7.994 7.994 0 0 1-7.998-7.998v-16.234a7.994 7.994 0 0 1 7.998-7.998c4.422 0 8 3.578 8 7.998v16.234a7.994 7.994 0 0 1-8 7.998zM792.146 879.952a7.994 7.994 0 0 1-5.654-2.342l-47.994-47.994a7.996 7.996 0 1 1 11.31-11.31l43.932 43.93 27.09-13.434a7.99 7.99 0 0 1 10.732 3.592c1.954 3.968 0.344 8.764-3.608 10.716l-32.246 15.998a8.058 8.058 0 0 1-3.562 0.844z" fill="" /><path d="M856.138 879.952a8.058 8.058 0 0 1-3.562-0.844l-32.246-15.998a7.992 7.992 0 0 1 7.124-14.308l27.09 13.434 43.932-43.93a7.996 7.996 0 1 1 11.31 11.31l-47.994 47.994a8.004 8.004 0 0 1-5.654 2.342zM679.91 703.974a8.06 8.06 0 0 1-3.982-1.062 8.02 8.02 0 0 1-4.016-6.936c0-80.522 40.26-116.72 59.804-129.546l-9.248-8.56a8.06 8.06 0 0 1-2.406-7.468 7.994 7.994 0 0 1 5.156-5.936c1.782-0.64 44.182-15.592 91.614-15.592 42.62 0 75.364 11.982 97.298 35.62 23.874 25.714 34.042 64.774 30.23 116.078a8.008 8.008 0 0 1-5.858 7.124 8.07 8.07 0 0 1-8.672-3.124l-31.464-44.792c-97.722-3.998-213.316 62.46-214.442 63.118a7.976 7.976 0 0 1-4.014 1.076z m63.632-148.402l7.078 6.544a8.042 8.042 0 0 1 2.454 7.234 8.006 8.006 0 0 1-4.734 5.984c-2.312 1.032-54.648 24.95-59.992 106.922 33.762-17.746 129.828-63.272 214.786-58.258a7.98 7.98 0 0 1 6.076 3.39l19.888 28.308c-0.688-34.996-9.638-61.96-26.7-80.332-18.78-20.232-47.572-30.496-85.566-30.496-29.512 0.004-57.572 6.376-73.29 10.704zM823.892 895.95a7.968 7.968 0 0 1-5.654-2.344l-16-15.996a8 8 0 1 1 11.312-11.312l15.998 15.998a7.996 7.996 0 0 1-5.656 13.654z" fill="" /><path d="M823.892 895.95a7.996 7.996 0 0 1-5.654-13.654l15.996-15.998a8 8 0 1 1 11.312 11.312l-15.998 15.996a7.974 7.974 0 0 1-5.656 2.344z" fill="" /><path d="M807.91 959.942a8.002 8.002 0 0 1-7.968-8.874l8-71.99c0.484-4.404 4.312-7.624 8.844-7.076a8 8 0 0 1 7.06 8.826l-7.998 71.99a8.008 8.008 0 0 1-7.938 7.124z" fill="" /><path d="M839.876 959.942a8.008 8.008 0 0 1-7.938-7.124l-7.998-71.99a8 8 0 0 1 7.06-8.826c4.532-0.532 8.36 2.672 8.844 7.076l8 71.99a8 8 0 0 1-7.968 8.874zM775.898 512c-0.844 0-1.704-0.132-2.532-0.414l-94.752-31.582H407.948c-22.044 0-39.996-17.944-39.996-39.994V152.046c0-22.052 17.952-39.996 39.996-39.996h447.942c22.06 0 39.994 17.944 39.994 39.996v287.962c0 22.05-17.934 39.994-39.994 39.994H783.9V504a7.996 7.996 0 0 1-8.002 8zM407.948 128.048c-13.234 0-23.998 10.766-23.998 23.998v287.962c0 13.232 10.764 23.996 23.998 23.996h271.962c0.86 0 1.718 0.14 2.532 0.414l85.458 28.48v-20.894c0-4.422 3.576-8 7.998-8h79.99c13.232 0 23.996-10.764 23.996-23.996V152.046c0-13.232-10.764-23.998-23.996-23.998h-447.94z" fill="" /><path d="M775.898 224.038h-303.96c-4.42 0-8-3.578-8-7.998 0-4.422 3.578-8 8-8h303.96c4.422 0 8 3.578 8 8a7.996 7.996 0 0 1-8 7.998zM775.898 304.028h-303.96c-4.42 0-8-3.578-8-8a7.994 7.994 0 0 1 8-7.998h303.96c4.422 0 8 3.578 8 7.998 0 4.422-3.578 8-8 8zM631.918 384.016h-159.98c-4.42 0-8-3.576-8-7.998s3.578-8 8-8h159.98c4.422 0 7.998 3.578 7.998 8s-3.576 7.998-7.998 7.998zM711.906 96.052h-159.978a7.994 7.994 0 0 1-7.998-7.998V56.058a7.994 7.994 0 0 1 7.998-7.998h159.978c4.422 0 8 3.576 8 7.998v31.996a7.994 7.994 0 0 1-8 7.998z m-151.98-15.996h143.982v-15.998h-143.982v15.998z" fill="" /><path d="M551.928 112.05a7.994 7.994 0 0 1-7.998-7.998v-15.998a7.994 7.994 0 0 1 7.998-7.998 7.992 7.992 0 0 1 7.998 7.998v15.998a7.992 7.992 0 0 1-7.998 7.998zM711.906 112.05a7.994 7.994 0 0 1-7.998-7.998v-15.998a7.994 7.994 0 0 1 7.998-7.998c4.422 0 8 3.576 8 7.998v15.998a7.994 7.994 0 0 1-8 7.998zM487.936 120.05h-47.994c-4.42 0-8-3.578-8-8a7.994 7.994 0 0 1 8-7.998h47.994c4.422 0 8 3.578 8 7.998 0 4.422-3.578 8-8 8zM823.892 120.05h-47.994a7.994 7.994 0 0 1-7.998-8 7.994 7.994 0 0 1 7.998-7.998h47.994a7.994 7.994 0 0 1 7.998 7.998c0 4.422-3.576 8-7.998 8zM583.924 72.056a7.994 7.994 0 0 1-7.998-7.998v-8c0-4.422 3.576-7.998 7.998-7.998s7.998 3.576 7.998 7.998v8a7.994 7.994 0 0 1-7.998 7.998zM615.92 72.056c-4.422 0-8-3.578-8-7.998v-8a7.994 7.994 0 0 1 8-7.998 7.994 7.994 0 0 1 7.998 7.998v8a7.994 7.994 0 0 1-7.998 7.998zM647.916 72.056c-4.422 0-8-3.578-8-7.998v-8a7.994 7.994 0 0 1 8-7.998 7.994 7.994 0 0 1 7.998 7.998v8a7.994 7.994 0 0 1-7.998 7.998zM679.91 72.056a7.994 7.994 0 0 1-7.998-7.998v-8a7.994 7.994 0 0 1 7.998-7.998c4.422 0 8 3.576 8 7.998v8a7.994 7.994 0 0 1-8 7.998zM167.978 480.004a7.904 7.904 0 0 1-3.764-0.946 7.988 7.988 0 0 1-4.234-7.052v-23.998h-8c-22.044 0-39.996-17.944-39.996-39.994v-159.98c0-22.05 17.952-39.994 39.996-39.994h191.974a7.994 7.994 0 0 1 7.998 8 7.994 7.994 0 0 1-7.998 7.998H151.98c-13.234 0-23.998 10.764-23.998 23.996v159.98c0 13.232 10.764 23.996 23.998 23.996h15.998c4.42 0 8 3.578 8 8v17.044l35.558-23.702a7.994 7.994 0 0 1 4.436-1.344h127.984a7.994 7.994 0 0 1 7.998 8 7.994 7.994 0 0 1-7.998 7.998h-125.562l-45.98 30.654a7.96 7.96 0 0 1-4.436 1.344z" fill="" /><path d="M343.956 304.028H199.974c-4.42 0-8-3.578-8-8a7.994 7.994 0 0 1 8-7.998h143.982a7.994 7.994 0 0 1 7.998 7.998c0 4.422-3.578 8-7.998 8z" fill="" /><path d="M343.956 368.018H199.974c-4.42 0-8-3.576-8-7.998s3.578-8 8-8h143.982c4.42 0 7.998 3.578 7.998 8s-3.578 7.998-7.998 7.998z" fill="" /></svg>